<svg xmlns="http://www.w3.org/2000/svg" viewBox="0 0 1920 1080" fill="none">
  <defs>
    <linearGradient id="bg" x2="1" y2="1"><stop stop-color="#101c32"/><stop offset=".55" stop-color="#122a40"/><stop offset="1" stop-color="#0b1729"/></linearGradient>
    <linearGradient id="ribbon" x1="350" y1="900" x2="1450" y2="150" gradientUnits="userSpaceOnUse"><stop stop-color="#223c78"/><stop offset=".4" stop-color="#586fd0"/><stop offset=".68" stop-color="#8daaf0"/><stop offset="1" stop-color="#4d8dab"/></linearGradient>
    <linearGradient id="fold" x1="900" y1="250" x2="1100" y2="950" gradientUnits="userSpaceOnUse"><stop stop-color="#8aacf0"/><stop offset=".3" stop-color="#476bbc"/><stop offset=".7" stop-color="#1c385f"/><stop offset="1" stop-color="#12243e"/></linearGradient>
    <linearGradient id="edge" x1="620" y1="0" x2="1360" y2="1080" gradientUnits="userSpaceOnUse"><stop stop-color="#abcafa" stop-opacity=".75"/><stop offset="1" stop-color="#567ec0" stop-opacity="0"/></linearGradient>
    <radialGradient id="glow"><stop stop-color="#4e9999" stop-opacity=".3"/><stop offset="1" stop-color="#4e9999" stop-opacity="0"/></radialGradient>
    <filter id="blur"><feGaussianBlur stdDeviation="65"/></filter>
  </defs>
  <path fill="url(#bg)" d="M0 0h1920v1080H0z"/>
  <ellipse cx="1580" cy="230" rx="680" ry="610" fill="url(#glow)"/>
  <path d="M560 1230C220 690 790 640 845 340S1190-90 1700-100" stroke="#0b1025" stroke-width="260" filter="url(#blur)" opacity=".6"/>
  <path d="M470 1180C260 960 550 710 760 585 995 445 735 235 1120 105 1290 48 1540 28 1880-120" stroke="url(#ribbon)" stroke-width="205"/>
  <path d="M545 1180C325 890 1185 780 1275 520 1360 280 795 250 1120 105" stroke="url(#fold)" stroke-width="205"/>
  <path d="M445 1110C308 856 1092 710 1185 491 1258 317 763 245 1090 52" stroke="url(#edge)" stroke-width="2"/>
  <path d="M352 1118C158 844 656 650 704 497" stroke="#a8bafa" stroke-opacity=".2" stroke-width="1.5"/>
</svg>
